<svg xmlns="http://www.w3.org/2000/svg" xmlns:xlink="http://www.w3.org/1999/xlink" version="1.1" x="0px" y="0px" viewBox="0 0 100 125" enable-background="new 0 0 100 100" xml:space="preserve"><g><path d="M93.139,7.306c0.484,0.484,0.484,1.27,0,1.754L8.468,94.899c-0.483,0.484-2.145,0.192-2.629-0.292l0,0   c-0.485-0.485-0.655-2.218-0.17-2.702L91.385,7.308C91.869,6.824,92.655,6.822,93.139,7.306L93.139,7.306z"/><circle cx="81.207" cy="19.263" r="2.325"/><circle cx="68.129" cy="32.34" r="2.687"/><circle cx="54.249" cy="46.221" r="2.944"/><circle cx="38.104" cy="62.366" r="2.944"/><ellipse transform="matrix(0.7071 -0.7071 0.7071 0.7071 -47.4773 39.1909)" cx="23.567" cy="76.903" rx="5.028" ry="3.928"/><ellipse transform="matrix(0.7071 -0.7071 0.7071 0.7071 -58.3245 34.6941)" cx="12.717" cy="87.751" rx="4.236" ry="3.308"/><path d="M9.722,90.746c1.292,1.292,0.998,3.681-0.656,5.336c-1.654,1.653-2.582,0.485-3.874-0.805   c-1.292-1.292-2.458-2.219-0.804-3.873C6.043,89.751,8.432,89.456,9.722,90.746z"/></g><text x="0" y="115" fill="#000000" font-size="5px" font-weight="bold" font-family="'Helvetica Neue', Helvetica, Arial-Unicode, Arial, Sans-serif">Created by Santiago Arias</text><text x="0" y="120" fill="#000000" font-size="5px" font-weight="bold" font-family="'Helvetica Neue', Helvetica, Arial-Unicode, Arial, Sans-serif">from the Noun Project</text></svg>